<svg width="547" height="206" viewBox="0 0 547 206" fill="none" xmlns="http://www.w3.org/2000/svg">
<path d="M88.4388 187V153.4H0.598755V132.76L86.5188 19H120.119V123.4H140.519V153.4H120.119V187H88.4388ZM88.4388 123.4V61.72L42.8388 123.4H88.4388Z" fill="black"/>
<path d="M494.439 187V153.4H406.599V132.76L492.519 19H526.119V123.4H546.519V153.4H526.119V187H494.439ZM494.439 123.4V61.72L448.839 123.4H494.439Z" fill="black"/>
<path d="M278.732 183.518L225.916 127.828L231.663 62.4277L192.026 0L184.099 8.62097L184 94.0379L227.798 167.366L269.021 196.3V205.714H278.732V183.518Z" fill="#09BAC8"/>
<path d="M278.732 183.518L251.68 94.0379L231.663 62.4277L225.916 127.828L278.732 183.518Z" fill="#09BAC8"/>
<path d="M373.364 8.62097L365.536 0L325.205 63.5177L330.655 127.828L278.732 183.518V205.714H288.542V196.3L329.665 167.366L373.463 94.0379L373.364 8.62097Z" fill="#09BAC8"/>
<path d="M278.732 183.518L330.655 127.828L325.205 63.5177L305.883 94.0379L278.732 183.518Z" fill="#09BAC8"/>
</svg>
