<svg width="60" height="76" viewBox="0 0 60 76" fill="none" xmlns="http://www.w3.org/2000/svg">
<path fill-rule="evenodd" clip-rule="evenodd" d="M0 60.2264H60V0H0V60.2264Z" fill="black"/>
<path fill-rule="evenodd" clip-rule="evenodd" d="M60 60.2264H0V0H60V60.2264ZM56.25 3.75113H3.75V56.4753H56.25V3.75113Z" fill="#17B838"/>
<path fill-rule="evenodd" clip-rule="evenodd" d="M15.2383 30.1135H18.5716V26.7676H15.2383V30.1135Z" fill="white"/>
<path fill-rule="evenodd" clip-rule="evenodd" d="M15.2383 23.4216H18.5716V20.0757H15.2383V23.4216Z" fill="white"/>
<path fill-rule="evenodd" clip-rule="evenodd" d="M11.9031 16.7295H8.57129V30.1131H11.9031V26.7697H15.238V23.4218H11.9031V16.7295Z" fill="white"/>
<path fill-rule="evenodd" clip-rule="evenodd" d="M21.4287 30.1134H24.762V20.0757H21.4287V30.1134Z" fill="#17B838"/>
<path fill-rule="evenodd" clip-rule="evenodd" d="M38.0957 43.4971H34.7631V30.1369V23.4303H31.4292V30.1369H28.0957V20.0757H38.0957V29.5397V43.4971Z" fill="#17B838"/>
<path fill-rule="evenodd" clip-rule="evenodd" d="M11.9043 43.4968H15.2376V40.1509H11.9043V43.4968Z" fill="white"/>
<path fill-rule="evenodd" clip-rule="evenodd" d="M15.2383 40.1508H18.5716V33.459H15.2383V40.1508Z" fill="white"/>
<path fill-rule="evenodd" clip-rule="evenodd" d="M8.57129 40.1508H11.9046V33.459H8.57129V40.1508Z" fill="white"/>
<path fill-rule="evenodd" clip-rule="evenodd" d="M21.4287 43.4967H31.4287V33.459H21.4287V43.4967ZM24.7619 40.1501H28.0951V36.8052H24.7619V40.1501Z" fill="#17B838"/>
<path fill-rule="evenodd" clip-rule="evenodd" d="M48.0957 36.8049H51.429V33.459H48.0957V36.8049Z" fill="white"/>
<path fill-rule="evenodd" clip-rule="evenodd" d="M44.7612 36.8055V30.1133H41.4287V43.4969H44.7612V40.1508H48.0954V36.8055H44.7612Z" fill="white"/>
<path fill-rule="evenodd" clip-rule="evenodd" d="M48.0957 43.4968H51.429V40.1509H48.0957V43.4968Z" fill="white"/>
<path fill-rule="evenodd" clip-rule="evenodd" d="M0 60.2266H15.7143V76.0001L0 60.2266Z" fill="#17B838"/>
</svg>
