<?xml version="1.0" encoding="UTF-8" standalone="no"?>
<!-- Created with Inkscape (http://www.inkscape.org/) -->

<svg
   xmlns:dc="http://purl.org/dc/elements/1.1/"
   xmlns:cc="http://creativecommons.org/ns#"
   xmlns:rdf="http://www.w3.org/1999/02/22-rdf-syntax-ns#"
   xmlns:svg="http://www.w3.org/2000/svg"
   xmlns="http://www.w3.org/2000/svg"
   xmlns:sodipodi="http://sodipodi.sourceforge.net/DTD/sodipodi-0.dtd"
   xmlns:inkscape="http://www.inkscape.org/namespaces/inkscape"
   width="75"
   height="75"
   viewBox="0 0 19.84375 19.843751"
   version="1.1"
   id="svg8"
   sodipodi:docname="flatcar-logo.svg"
   inkscape:version="0.92.4 5da689c313, 2019-01-14">
  <defs
     id="defs2">
    <style
       id="style89">.cls-1{fill:#0fa;}</style>
  </defs>
  <sodipodi:namedview
     id="base"
     pagecolor="#ffffff"
     bordercolor="#666666"
     borderopacity="1.0"
     inkscape:pageopacity="0.0"
     inkscape:pageshadow="2"
     inkscape:zoom="8"
     inkscape:cx="22.907261"
     inkscape:cy="44.169125"
     inkscape:document-units="mm"
     inkscape:current-layer="layer1"
     showgrid="false"
     units="px"
     inkscape:window-width="1920"
     inkscape:window-height="1016"
     inkscape:window-x="0"
     inkscape:window-y="27"
     inkscape:window-maximized="1" />
  <metadata
     id="metadata5">
    <rdf:RDF>
      <cc:Work
         rdf:about="">
        <dc:format>image/svg+xml</dc:format>
        <dc:type
           rdf:resource="http://purl.org/dc/dcmitype/StillImage" />
        <dc:title />
      </cc:Work>
    </rdf:RDF>
  </metadata>
  <g
     inkscape:label="Layer 1"
     inkscape:groupmode="layer"
     id="layer1"
     transform="translate(0,-277.15623)">
    <rect
       id="rect4626"
       width="12.126342"
       height="3.8910999"
       x="3.8518758"
       y="281.69583"
       style="fill:#00ffaa;fill-opacity:1;stroke:none;stroke-width:0.09158828" />
    <rect
       style="fill:#00ffaa;fill-opacity:1;stroke:none;stroke-width:0.11260918"
       y="286.21219"
       x="2.735249"
       height="4.9888158"
       width="14.297907"
       id="rect4686" />
    <g
       data-name="Layer 2"
       id="Layer_2"
       transform="matrix(0.04177003,0,0,0.04177003,0.66145935,281.36919)"
       style="fill:#001e43;fill-opacity:1">
      <g
         data-name="Layer 1"
         id="Layer_1-2"
         style="fill:#001e43;fill-opacity:1">
        <rect
           id="rect95"
           height="13.04"
           width="13.04"
           y="39.389999"
           x="241.08"
           class="cls-1"
           style="fill:#001e43;fill-opacity:1" />
        <rect
           id="rect97"
           height="13.04"
           width="26.09"
           y="150.25999"
           x="195.67999"
           class="cls-1"
           style="fill:#001e43;fill-opacity:1" />
        <rect
           id="rect99"
           height="13.04"
           width="26.09"
           y="150.25999"
           x="313.07999"
           class="cls-1"
           style="fill:#001e43;fill-opacity:1" />
        <path
           id="path101"
           d="m 430.43,234.78 v -78.26 h -13 v 78.26 h -13 V 104.35 H 378.26 V 0 h -313 V 104.35 H 39.13 v 130.43 h -13 V 156.52 H 13 v 78.26 H 0 v 25.57 h 26.09 v 13 h 39.13 v -13 h 13 v 13 h 39.13 v -13 h 208.7 v 13 h 39.13 v -13 h 13 v 13 h 39.13 v -13 H 443.4 V 234.78 Z M 293.25,13.3 h 65.22 V 39.39 H 339.16 V 91.57 H 313.08 V 39.39 H 293.25 Z M 84.55,65.48 V 13.3 h 52.18 v 19.31 h -26.09 v 13 h 26.09 V 65.48 H 110.64 V 91.57 H 84.55 Z m 59,84.78 v 13 h -39.17 v 26.09 h 39.13 v 39.13 H 65.25 V 124.17 h 78.26 z m 6.26,-58.69 V 13.3 H 175.9 V 65.48 H 202 v 26.09 h -52.23 z m 111.09,58.69 v 78.26 h -39.13 v -39.13 h -26.09 v 39.13 h -39.13 v -91.3 h 13 v -13 h 78.26 v 13 h 13 z M 254.12,91.57 V 65.48 h -13 V 91.57 H 215 V 26.35 h 13 v -13 h 39.13 v 13 h 13 v 65.22 z m 124.17,58.69 v 39.13 h -13 v 13 h 13 v 26.09 h -39.13 v -26.05 h -13 v -13 h -13 v 39.13 H 274 V 124.17 h 104.29 z"
           class="cls-1"
           inkscape:connector-curvature="0"
           style="fill:#001e43;fill-opacity:1" />
      </g>
    </g>
  </g>
</svg>
