<svg width="173" height="38" viewBox="0 0 173 38" fill="none" xmlns="http://www.w3.org/2000/svg">
<g clip-path="url(#clip0)">
<path d="M43.5659 15.8117V30.9869H38.876V7.53735H43.2644L53.3812 22.7125H53.4482V7.53735H58.1381V30.9869H53.7497L43.6329 15.8117H43.5659Z" fill="#231F20"/>
<path d="M75.7252 27.0674V30.9869H65.7089L61.823 28.7424V16.3142L65.7089 14.0697H71.8393L75.7252 16.3142V24.3205H66.4124V27.0674H75.7252ZM66.4124 17.9891V20.8701H71.1358V17.9891H66.4124Z" fill="#231F20"/>
<path d="M86.0263 14.0697H90.4147L94.3007 16.3142V28.9099L90.4147 31.1544H86.0263L83.6478 29.7809L81.2694 31.1544H79.0584V6.53235H83.6478V15.4432L86.0263 14.0697ZM83.6478 17.9891V27.2349H89.7112V17.9891H83.6478Z" fill="#231F20"/>
<path d="M108.002 18.1566H102.24V30.9868H97.6506V14.2372H101.436L102.24 15.6107L104.618 14.2372H108.002V18.1566Z" fill="#231F20"/>
<path d="M112.893 31.1543L109.007 28.9099V23.1145L112.893 20.87H118.32V18.1566H110.682V14.2372H119.023L122.909 16.4816V31.1543H120.698L118.32 29.7809L115.941 31.1543H112.893ZM113.596 24.3875V27.3019H118.32V24.3875H113.596Z" fill="#231F20"/>
<path d="M139.525 22.746V28.7424L135.639 30.9868H126.259V27.0674H134.935V24.488H130.145L126.259 22.2435V16.4816L130.145 14.2372H139.19V18.1566H130.848V20.5016H135.639L139.525 22.746Z" fill="#231F20"/>
<path d="M147.464 6.53235V20.9706H147.531L152.723 14.2372H157.983L151.986 21.7075L158.988 30.9869H153.661L149.307 25.0575L147.464 27.3689V30.9869H142.875V6.53235H147.464Z" fill="#231F20"/>
<path d="M162.874 31.1543L158.988 28.9099V23.1145L162.874 20.87H168.301V18.1566H160.663V14.2372H169.004L172.89 16.4816V31.1543H170.679L168.301 29.7809L165.922 31.1543H162.874ZM163.577 24.3875V27.3019H168.301V24.3875H163.577Z" fill="#231F20"/>
<path d="M13.584 0L18.0394 8.09009L19.6809 27.235L12.713 34.7053L5.62791 27.235L7.28612 8.09009L11.8085 0H13.584Z" fill="#FEBA00"/>
<path d="M0.0167497 11.239L0 22.6958L5.87913 32.5446L11.4065 36.4138V37.6868H12.713V34.7053L9.07832 22.6958L1.07198 10.0833L0.0167497 11.239Z" fill="#09BAC8"/>
<path d="M25.4092 11.239L25.426 22.6958L19.5468 32.5446L14.0194 36.4138V37.6868H12.713V34.7053L16.3477 22.6958L24.354 10.0833L25.4092 11.239Z" fill="#09BAC8"/>
</g>
<defs>
<clipPath id="clip0">
<rect width="172.89" height="37.6867" fill="white"/>
</clipPath>
</defs>
</svg>
