<?xml version="1.0" encoding="UTF-8" standalone="no"?>
<svg
   width="768"
   height="180"
   viewBox="0 0 768 180"
   fill="none"
   version="1.1"
   id="svg24"
>
  <path
     d="M211.4 140H201.4V130V120V110V100V90V80V70V60H191.4H181.4V70V80V90V100V110V120V130V140H171.4H161.4V130V120V110V100V90V80V70V60V50V40H171.4H181.4H191.4H201.4H211.4H221.4V50V60V70V80V90V100V110V120V130V140H211.4Z"
     fill="black"
     id="path2" />
  <path
     d="M289.4 140H279.4H269.4H259.4H249.4H239.4V130V120V110V100V90V80V70V60V50V40H249.4H259.4H269.4H279.4H289.4H299.4V50V60H289.4H279.4H269.4H259.4V70V80H269.4H279.4H289.4H299.4V90V100H289.4H279.4H269.4H259.4V110V120H269.4H279.4H289.4H299.4V130V140H289.4Z"
     fill="black"
     id="path4" />
  <path
     d="M367.5 140H357.5H347.5H337.5H327.5H317.5V130V120V110V100V90V80V70V60V50V40H327.5H337.5H347.5H357.5H367.5H377.5V50V60V70V80H367.5H357.5V70V60H347.5H337.5V70V80H347.5H357.5V90V100H347.5H337.5V110V120H347.5H357.5V110V100H367.5H377.5V110V120V130V140H367.5Z"
     fill="black"
     id="path6" />
  <path
     d="M405.5 140H395.5V130V120V110V100V90V80V70V60V50V40H405.5H415.5H425.5H435.5H445.5H455.5V50V60V70V80V90V100H445.5H435.5V110V120H425.5H415.5V130V140H405.5ZM425.5 80H435.5V70V60H425.5H415.5V70V80H425.5ZM445.5 140H435.5V130V120H445.5H455.5V130V140H445.5Z"
     fill="black"
     id="path8" />
  <path
     d="M523.5 140H513.5V130V120V110V100H503.5H493.5V110V120V130V140H483.5H473.5V130V120V110V100V90V80V70V60V50V40H483.5H493.5H503.5H513.5H523.5H533.5V50V60V70V80V90V100V110V120V130V140H523.5ZM503.5 80H513.5V70V60H503.5H493.5V70V80H503.5Z"
     fill="black"
     id="path10" />
  <path
     d="M571.5 80H561.5H551.5V70V60V50V40H561.5H571.5H581.5H591.5H601.5H611.5V50V60H601.5H591.5H581.5H571.5V70V80ZM601.5 140H591.5H581.5H571.5H561.5H551.5V130V120H561.5H571.5H581.5H591.5V110V100H601.5H611.5V110V120V130V140H601.5ZM591.5 100H581.5H571.5V90V80H581.5H591.5V90V100Z"
     fill="black"
     id="path12" />
  <path
     d="M639.5 140H629.5V130V120V110V100V90V80V70V60V50V40H639.5H649.5V50V60V70V80H659.5H669.5V90V100H659.5H649.5V110V120V130V140H639.5ZM669.5 80V70V60V50V40H679.5H689.5V50V60V70V80H679.5H669.5ZM679.5 140H669.5V130V120V110V100H679.5H689.5V110V120V130V140H679.5Z"
     fill="black"
     id="path14" />
  <path
     d="M757.5 140H747.5V130V120V110V100H737.5H727.5V110V120V130V140H717.5H707.5V130V120V110V100V90V80V70V60V50V40H717.5H727.5H737.5H747.5H757.5H767.5V50V60V70V80V90V100V110V120V130V140H757.5ZM737.5 80H747.5V70V60H737.5H727.5V70V80H737.5Z"
     fill="black"
     id="path16" />
  <path
     d="M64.9 0L86.2 38.5L94 129.9L60.7 165.7L27 129.9L34.9 38.5L56.5 0H64.9Z"
     fill="#FEBA00"
     id="path18" />
  <path
     d="M0.2 53.6L0 108.3L28.1 155.4L54.5 173.9V180H60.8V165.7L43.4 108.3L5.2 48.2L0.2 53.6Z"
     fill="#09BAC8"
     id="path20" />
  <path
     d="M121.3 53.6001L121.5 108.3L93.3998 155.4L66.9998 173.9V180H60.7998V165.7L78.1998 108.3L116.4 48.1001L121.3 53.6001Z"
     fill="#09BAC8"
     id="path22" />
</svg>
