<?xml version="1.0" encoding="UTF-8" standalone="no"?>
<svg
   xmlns:dc="http://purl.org/dc/elements/1.1/"
   xmlns:cc="http://creativecommons.org/ns#"
   xmlns:rdf="http://www.w3.org/1999/02/22-rdf-syntax-ns#"
   xmlns:svg="http://www.w3.org/2000/svg"
   xmlns="http://www.w3.org/2000/svg"
   xmlns:sodipodi="http://sodipodi.sourceforge.net/DTD/sodipodi-0.dtd"
   xmlns:inkscape="http://www.inkscape.org/namespaces/inkscape"
   width="768"
   height="180"
   viewBox="0 0 768 180"
   fill="none"
   version="1.1"
   id="svg24"
   sodipodi:docname="nebraska-logo1.svg"
   inkscape:version="1.0.1 (3bc2e813f5, 2020-09-07)">
  <metadata
     id="metadata30">
    <rdf:RDF>
      <cc:Work
         rdf:about="">
        <dc:format>image/svg+xml</dc:format>
        <dc:type
           rdf:resource="http://purl.org/dc/dcmitype/StillImage" />
        <dc:title></dc:title>
      </cc:Work>
    </rdf:RDF>
  </metadata>
  <defs
     id="defs28" />
  <sodipodi:namedview
     pagecolor="#ffffff"
     bordercolor="#666666"
     borderopacity="1"
     objecttolerance="10"
     gridtolerance="10"
     guidetolerance="10"
     inkscape:pageopacity="0"
     inkscape:pageshadow="2"
     inkscape:window-width="2048"
     inkscape:window-height="1088"
     id="namedview26"
     showgrid="false"
     inkscape:zoom="1.2422485"
     inkscape:cx="365.76839"
     inkscape:cy="-83.850589"
     inkscape:window-x="0"
     inkscape:window-y="27"
     inkscape:window-maximized="1"
     inkscape:current-layer="svg24" />
  <rect
     style="fill:#ffffff;stroke:#ffffff;stroke-width:1.00157;stroke-linejoin:round"
     id="rect855"
     width="767.52277"
     height="179.02853"
     x="0.23861694"
     y="0.48573303" />
  <g
     id="g899"
     transform="matrix(0.87772482,0,0,0.87772482,47.1731,11.004766)">
    <path
       d="m 211.4,140 h -10 V 130 120 110 100 90 80 70 60 h -10 -10 v 10 10 10 10 10 10 10 10 h -10 -10 V 130 120 110 100 90 80 70 60 50 40 h 10 10 10 10 10 10 v 10 10 10 10 10 10 10 10 10 10 z"
       fill="#000000"
       id="path2" />
    <path
       d="m 289.4,140 h -10 -10 -10 -10 -10 V 130 120 110 100 90 80 70 60 50 40 h 10 10 10 10 10 10 v 10 10 h -10 -10 -10 -10 v 10 10 h 10 10 10 10 v 10 10 h -10 -10 -10 -10 v 10 10 h 10 10 10 10 v 10 10 z"
       fill="#000000"
       id="path4" />
    <path
       d="m 367.5,140 h -10 -10 -10 -10 -10 V 130 120 110 100 90 80 70 60 50 40 h 10 10 10 10 10 10 v 10 10 10 10 h -10 -10 V 70 60 h -10 -10 v 10 10 h 10 10 v 10 10 h -10 -10 v 10 10 h 10 10 v -10 -10 h 10 10 v 10 10 10 10 z"
       fill="#000000"
       id="path6" />
    <path
       d="m 405.5,140 h -10 V 130 120 110 100 90 80 70 60 50 40 h 10 10 10 10 10 10 v 10 10 10 10 10 10 h -10 -10 v 10 10 h -10 -10 v 10 10 z m 20,-60 h 10 V 70 60 h -10 -10 v 10 10 z m 20,60 h -10 v -10 -10 h 10 10 v 10 10 z"
       fill="#000000"
       id="path8" />
    <path
       d="m 523.5,140 h -10 v -10 -10 -10 -10 h -10 -10 v 10 10 10 10 h -10 -10 V 130 120 110 100 90 80 70 60 50 40 h 10 10 10 10 10 10 v 10 10 10 10 10 10 10 10 10 10 z m -20,-60 h 10 V 70 60 h -10 -10 v 10 10 z"
       fill="#000000"
       id="path10" />
    <path
       d="m 571.5,80 h -10 -10 V 70 60 50 40 h 10 10 10 10 10 10 v 10 10 h -10 -10 -10 -10 v 10 z m 30,60 h -10 -10 -10 -10 -10 v -10 -10 h 10 10 10 10 v -10 -10 h 10 10 v 10 10 10 10 z m -10,-40 h -10 -10 V 90 80 h 10 10 v 10 z"
       fill="#000000"
       id="path12" />
    <path
       d="m 639.5,140 h -10 V 130 120 110 100 90 80 70 60 50 40 h 10 10 v 10 10 10 10 h 10 10 v 10 10 h -10 -10 v 10 10 10 10 z m 30,-60 V 70 60 50 40 h 10 10 v 10 10 10 10 h -10 z m 10,60 h -10 v -10 -10 -10 -10 h 10 10 v 10 10 10 10 z"
       fill="#000000"
       id="path14" />
    <path
       d="m 757.5,140 h -10 v -10 -10 -10 -10 h -10 -10 v 10 10 10 10 h -10 -10 V 130 120 110 100 90 80 70 60 50 40 h 10 10 10 10 10 10 v 10 10 10 10 10 10 10 10 10 10 z m -20,-60 h 10 V 70 60 h -10 -10 v 10 10 z"
       fill="#000000"
       id="path16" />
    <path
       d="M 64.9,0 86.2,38.5 94,129.9 60.7,165.7 27,129.9 34.9,38.5 56.5,0 Z"
       fill="#feba00"
       id="path18" />
    <path
       d="m 0.2,53.6 -0.2,54.7 28.1,47.1 26.4,18.5 v 6.1 h 6.3 V 165.7 L 43.4,108.3 5.2,48.2 Z"
       fill="#09bac8"
       id="path20" />
    <path
       d="m 121.3,53.6001 0.2,54.6999 -28.1002,47.1 -26.4,18.5 v 6.1 h -6.2 v -14.3 l 17.4,-57.4 L 116.4,48.1001 Z"
       fill="#09bac8"
       id="path22" />
  </g>
</svg>
